<?xml version='1.0' encoding='utf-8'?>
<svg xmlns="http://www.w3.org/2000/svg" 
width="36"
 height="36" 
 viewBox="0 0 36 36" 
 fill="none"> 
 <mask id="mask0_8530_127009" 
 style="mask-type:alpha"
  maskUnits="userSpaceOnUse" 
  x="0" y="0" 
  width="36"
   height="36">
    <circle cx="18" cy="18" r="18" 
    fill="#E0E0E0"/> 
    </mask> 
    <g mask="url(#mask0_8530_127009)"> 
    <rect x="-1" width="37" height="46" 
    fill="#EF8122"/> </g> 
    <path d="M24.6296 14.9091C24.5 11.2159 22 9 17.8889 9C13.8241 9 11.3148 11.0455 11.3333 14.6818C11.3148 17.4318 12.7685 19.1932 15.6667 19.8182L18.1852 20.3636C19.2963 20.6136 19.7963 20.9773 19.8148 21.6364C19.7963 22.3636 19.1204 22.7727 18.1852 22.7727C17.0278 22.7727 16.213 22.1591 16.0741 21.0455H11C11.2778 24.625 13.7963 27 18.1481 27C22.0833 27 24.9815 24.6477 25 20.9091C24.9815 18.3295 23.5741 16.8295 20.6667 16.1818L17.7778 15.5455C16.6944 15.3068 16.3889 14.8295 16.4074 14.3182C16.3889 13.5909 17.1204 13.1818 18 13.1818C19.0093 13.1818 19.8519 13.8409 19.9259 14.9091H24.6296Z" 
    fill="white"/> </svg>